<svg width="263" height="315" viewBox="0 0 263 315" fill="none" xmlns="http://www.w3.org/2000/svg">
<path d="M57.3282 32.2222C54.2424 31.7814 45.0358 30.081 39.6951 31.7814C35.7241 33.0457 39.5111 36.3812 37.491 37.9522C34.3215 40.417 29.9306 34.4635 27.7927 37.9522C25.9039 41.0344 27.3519 44.5638 29.9969 49.4123C31.5523 52.2635 24.5819 47.2546 20.2986 48.5308L20.2941 48.5321C16.0906 49.7844 13.6862 50.5008 13.6862 54.7016C13.6862 59.5501 15.0086 68.3655 17.2128 73.214C18.7801 76.6615 4.2991 68.2686 1.34288 73.6548C-0.147938 76.3711 3.54705 75.4179 6.19202 77.6218C8.83698 79.8256 27.8214 78.0424 38.8134 85.1149C44.5497 88.8057 49.3508 90.5759 51.5975 97.0158C58.2099 115.969 52.4791 140.212 63.9407 152.994C69.8107 159.54 59.7092 166.898 57.769 175.473C55.3761 186.05 56.167 195.722 60.414 205.005C63.1996 211.094 64.6005 210.266 67.0265 213.821C80.1672 233.075 83.7779 262.306 91.7129 267.595C95.1775 269.904 96.4982 268.656 96.1212 264.509C95.2395 254.812 77.6064 230.57 78.9289 227.925C79.9298 225.924 84.8336 226.684 85.5413 228.807C87.3046 234.096 87.7265 241.421 93.0354 247.319C100.97 256.135 104.572 260.31 110.228 269.358C114.636 276.41 107.19 279.555 112.873 286.548C124.334 300.653 141.527 298.449 152.988 305.501C156.758 307.821 159.698 301.653 164.009 302.857C169.252 304.321 172.56 308.878 178.115 311.672C187.805 316.545 196.189 312.113 198.834 312.994C201.479 313.876 205.447 306.824 208.974 304.62C211.259 303.192 220.483 297.943 218.672 296.245C212.457 290.416 198.394 299.697 193.985 296.245C189.577 292.793 202.927 272.497 192.222 269.799C184.98 267.974 182.286 270.536 177.675 276.41C175.009 279.806 174.942 283.056 171.503 285.667C167.253 288.893 162.645 287.983 157.837 285.667C151.45 282.589 150.529 276.725 149.021 269.799C147.13 261.116 149.021 240.708 162.686 240.708C176.352 240.708 190.9 234.096 196.189 231.451C201.479 228.807 202.556 249.703 211.618 250.405C217.457 250.857 220.435 251.788 220.435 247.319C220.435 238.063 208.759 233.832 208.974 223.518C209.183 213.434 218.231 203.683 220.876 200.597C223.521 197.512 212.059 176.796 224.843 173.71C237.627 170.625 226.166 165.336 226.166 165.336C226.166 165.336 223.08 161.369 223.962 160.928C224.843 160.487 227.929 154.757 230.133 154.757C232.337 154.757 231.456 157.402 237.627 157.402C243.799 157.402 246.444 139.771 247.766 137.126C249.089 134.481 243.358 133.159 242.036 133.159C240.713 133.159 237.627 139.771 235.864 139.771C234.101 139.771 228.37 138.008 230.133 134.922C231.897 131.837 223.962 131.396 223.962 133.159C223.962 134.922 219.553 141.093 218.231 139.771C216.908 138.448 219.113 132.278 222.198 130.515C225.284 128.751 234.101 126.107 235.864 124.344C237.627 122.581 236.746 114.647 239.832 114.647C242.917 114.647 238.95 130.074 242.036 131.396C245.121 132.718 257.465 127.429 260.991 124.344C264.518 121.258 257.906 115.969 254.82 114.647C251.734 113.324 246.003 118.173 246.003 114.647C246.003 111.121 238.509 104.068 235.864 103.187C233.219 102.305 219.994 103.187 218.231 97.0158C216.468 90.845 209.855 94.3711 205.447 90.4042C201.039 86.4372 208.533 100.983 203.684 100.983C198.834 100.983 194.867 94.3711 192.222 93.0488C189.577 91.7265 185.169 90.4042 183.405 90.4042C181.642 90.4042 179.438 93.0488 177.234 93.0488C175.03 93.0488 176.352 105.831 177.234 106.272C178.115 106.713 182.083 115.969 184.728 115.087C187.373 114.206 186.05 125.666 182.083 124.344C178.115 123.021 183.405 132.278 186.05 133.159C188.695 134.041 184.728 139.771 183.405 139.771C182.083 139.771 181.642 127.87 174.589 126.107C167.536 124.344 164.891 123.903 159.601 123.021C154.311 122.14 149.462 118.173 147.257 114.647C145.053 111.121 150.784 99.6604 152.547 99.2196C154.311 98.7789 151.225 93.0488 154.311 93.0488C157.396 93.0488 157.837 96.1342 160.923 97.0158C164.009 97.8973 165.331 92.1673 168.417 93.0488C171.503 93.9304 173.707 87.3188 171.503 88.2003C169.299 89.0819 159.601 84.2334 160.923 82.0295C162.246 79.8256 164.009 78.9441 166.213 77.6218C168.417 76.2995 160.595 70.5778 163.568 67.0432C165.503 64.7427 165.536 67.2941 167.536 67.0432C173.131 66.341 175.691 68.0658 176.352 73.6548C176.953 78.7315 173.707 76.7402 171.503 82.0295C169.299 87.3188 182.083 85.5557 182.083 85.5557C182.083 85.5557 188.255 89.0819 194.867 89.9634C201.479 90.845 200.157 88.6411 199.716 82.4703C199.275 76.2995 197.953 64.8394 195.749 63.517C193.544 62.1947 166.213 48.5308 160.923 48.09C155.633 47.6492 153.429 48.09 149.462 50.7346C145.494 53.3792 145.053 60.8724 148.139 65.2801C151.225 69.6879 155.633 66.1617 155.192 67.484C154.752 68.8063 157.396 75.4179 155.192 77.6218C152.988 79.8256 143.29 59.1093 140.204 60.8724C137.118 62.6355 138.882 69.2471 136.678 69.6879C134.473 70.1286 134.033 79.3849 132.269 77.6218C130.506 75.8587 130.186 69.0489 128.302 62.6355C127.12 58.6137 129.312 53.6691 125.657 51.6162C122.955 50.0987 122.193 55.6523 119.044 54.7016C113.276 52.9599 119.044 46.7677 103.175 44.5638C87.3046 42.3599 112.873 74.0956 107.142 68.8063C101.411 63.517 84.2188 60.4316 78.4881 56.0239C72.7573 51.6162 60.4141 32.6629 57.3282 32.2222Z" fill="url(#paint0_linear_10_30)"/>
<path d="M212.941 262.746C208.974 264.069 210.278 266.685 207.21 267.154C204.404 267.583 201.723 267.759 200.157 265.391C197.838 261.886 209.557 258.317 213.382 256.576C217.562 254.672 218.672 253.474 228.811 256.127C238.95 258.779 259.522 255.011 250.411 262.746C245.635 266.802 237.627 269.358 233.66 268.476C229.693 267.595 216.908 261.424 212.941 262.746Z" fill="url(#paint1_linear_10_30)"/>
<path d="M233.66 276.41C231.262 274.013 235.545 274.531 238.509 272.884C242.477 270.68 251.293 275.529 246.885 275.529C242.477 275.529 242.917 278.173 239.832 278.614C236.746 279.055 235.423 278.173 233.66 276.41Z" fill="url(#paint2_linear_10_30)"/>
<path d="M108.024 36.1891C113.314 33.1037 109.899 30.7667 112.873 29.5775C117.281 27.8144 120.808 26.9329 123.453 29.5775C128.188 34.3119 134.36 36.5994 135.796 41.4784C136.444 43.6815 135.602 42.912 134.473 47.2084C133.007 52.7899 132.71 45.4453 125.216 48.5308C117.722 51.6162 102.734 39.2745 108.024 36.1891Z" fill="url(#paint3_linear_10_30)"/>
<path d="M136.237 18.5582C137.811 9.07154 138.887 10.5561 145.935 4.01265C152.107 -1.71734 154.056 2.64385 157.396 1.80886C162.686 0.486482 157.396 13.8767 157.396 20.762C157.396 25.5295 157.298 26.131 156.54 30.7465L156.515 30.8998C155.994 34.0731 159.601 42.3599 157.837 44.123C152.547 49.4131 149.462 48.09 140.204 48.5308C136.017 48.7301 137.745 39.6327 135.355 36.1891C134.45 34.8854 123.895 27.8132 125.216 26.9329C127.861 25.1698 135.796 29.8591 135.796 26.9329V26.7572C135.796 24.0555 135.795 21.2175 136.237 18.5582Z" fill="url(#paint4_linear_10_30)"/>
<path d="M131.828 60.8724C128.743 56.4647 127.861 52.0569 130.947 53.3793C134.033 54.7016 141.527 48.5308 143.731 50.2938C145.935 52.0569 145.053 55.1423 143.731 56.0239C142.408 56.9054 134.914 65.2801 131.828 60.8724Z" fill="url(#paint5_linear_10_30)"/>
<path d="M57.3282 32.2222C54.2424 31.7814 45.0358 30.081 39.6951 31.7814C35.7241 33.0457 39.5111 36.3812 37.491 37.9522C34.3215 40.417 29.9306 34.4635 27.7927 37.9522C25.9039 41.0344 27.3519 44.5638 29.9969 49.4123C31.5523 52.2635 24.5819 47.2546 20.2986 48.5308L20.2941 48.5321C16.0906 49.7844 13.6862 50.5008 13.6862 54.7016C13.6862 59.5501 15.0086 68.3655 17.2128 73.214C18.7801 76.6615 4.2991 68.2686 1.34288 73.6548C-0.147938 76.3711 3.54705 75.4179 6.19202 77.6218C8.83698 79.8256 27.8214 78.0424 38.8134 85.1149C44.5497 88.8057 49.3508 90.5759 51.5975 97.0158C58.2099 115.969 52.4791 140.212 63.9407 152.994C69.8107 159.54 59.7092 166.898 57.769 175.473C55.3761 186.05 56.167 195.722 60.414 205.005C63.1996 211.094 64.6005 210.266 67.0265 213.821C80.1672 233.075 83.7779 262.306 91.7129 267.595C95.1775 269.904 96.4982 268.656 96.1212 264.509C95.2395 254.812 77.6064 230.57 78.9289 227.925C79.9298 225.924 84.8336 226.684 85.5413 228.807C87.3046 234.096 87.7265 241.421 93.0354 247.319C100.97 256.135 104.572 260.31 110.228 269.358C114.636 276.41 107.19 279.555 112.873 286.548C124.334 300.653 141.527 298.449 152.988 305.501C156.758 307.821 159.698 301.653 164.009 302.857C169.252 304.321 172.56 308.878 178.115 311.672C187.805 316.545 196.189 312.113 198.834 312.994C201.479 313.876 205.447 306.824 208.974 304.62C211.259 303.192 220.483 297.943 218.672 296.245C212.457 290.416 198.394 299.697 193.985 296.245C189.577 292.793 202.927 272.497 192.222 269.799C184.98 267.974 182.286 270.536 177.675 276.41C175.009 279.806 174.942 283.056 171.503 285.667C167.253 288.893 162.645 287.983 157.837 285.667C151.45 282.589 150.529 276.725 149.021 269.799C147.13 261.116 149.021 240.708 162.686 240.708C176.352 240.708 190.9 234.096 196.189 231.451C201.479 228.807 202.556 249.703 211.618 250.405C217.457 250.857 220.435 251.788 220.435 247.319C220.435 238.063 208.759 233.832 208.974 223.518C209.183 213.434 218.231 203.683 220.876 200.597C223.521 197.512 212.059 176.796 224.843 173.71C237.627 170.625 226.166 165.336 226.166 165.336C226.166 165.336 223.08 161.369 223.962 160.928C224.843 160.487 227.929 154.757 230.133 154.757C232.337 154.757 231.456 157.402 237.627 157.402C243.799 157.402 246.444 139.771 247.766 137.126C249.089 134.481 243.358 133.159 242.036 133.159C240.713 133.159 237.627 139.771 235.864 139.771C234.101 139.771 228.37 138.008 230.133 134.922C231.897 131.837 223.962 131.396 223.962 133.159C223.962 134.922 219.553 141.093 218.231 139.771C216.908 138.448 219.113 132.278 222.198 130.515C225.284 128.751 234.101 126.107 235.864 124.344C237.627 122.581 236.746 114.647 239.832 114.647C242.917 114.647 238.95 130.074 242.036 131.396C245.121 132.718 257.465 127.429 260.991 124.344C264.518 121.258 257.906 115.969 254.82 114.647C251.734 113.324 246.003 118.173 246.003 114.647C246.003 111.121 238.509 104.068 235.864 103.187C233.219 102.305 219.994 103.187 218.231 97.0158C216.468 90.845 209.855 94.3711 205.447 90.4042C201.039 86.4372 208.533 100.983 203.684 100.983C198.834 100.983 194.867 94.3711 192.222 93.0488C189.577 91.7265 185.169 90.4042 183.405 90.4042C181.642 90.4042 179.438 93.0488 177.234 93.0488C175.03 93.0488 176.352 105.831 177.234 106.272C178.115 106.713 182.083 115.969 184.728 115.087C187.373 114.206 186.05 125.666 182.083 124.344C178.115 123.021 183.405 132.278 186.05 133.159C188.695 134.041 184.728 139.771 183.405 139.771C182.083 139.771 181.642 127.87 174.589 126.107C167.536 124.344 164.891 123.903 159.601 123.021C154.311 122.14 149.462 118.173 147.257 114.647C145.053 111.121 150.784 99.6604 152.547 99.2196C154.311 98.7789 151.225 93.0488 154.311 93.0488C157.396 93.0488 157.837 96.1342 160.923 97.0158C164.009 97.8973 165.331 92.1673 168.417 93.0488C171.503 93.9304 173.707 87.3188 171.503 88.2003C169.299 89.0819 159.601 84.2334 160.923 82.0295C162.246 79.8256 164.009 78.9441 166.213 77.6218C168.417 76.2995 160.595 70.5778 163.568 67.0432C165.503 64.7427 165.536 67.2941 167.536 67.0432C173.131 66.341 175.691 68.0658 176.352 73.6548C176.953 78.7315 173.707 76.7402 171.503 82.0295C169.299 87.3188 182.083 85.5557 182.083 85.5557C182.083 85.5557 188.255 89.0819 194.867 89.9634C201.479 90.845 200.157 88.6411 199.716 82.4703C199.275 76.2995 197.953 64.8394 195.749 63.517C193.544 62.1947 166.213 48.5308 160.923 48.09C155.633 47.6492 153.429 48.09 149.462 50.7346C145.494 53.3792 145.053 60.8724 148.139 65.2801C151.225 69.6879 155.633 66.1617 155.192 67.484C154.752 68.8063 157.396 75.4179 155.192 77.6218C152.988 79.8256 143.29 59.1093 140.204 60.8724C137.118 62.6355 138.882 69.2471 136.678 69.6879C134.473 70.1286 134.033 79.3849 132.269 77.6218C130.506 75.8587 130.186 69.0489 128.302 62.6355C127.12 58.6137 129.312 53.6691 125.657 51.6162C122.955 50.0987 122.193 55.6523 119.044 54.7016C113.276 52.9599 119.044 46.7677 103.175 44.5638C87.3046 42.3599 112.873 74.0956 107.142 68.8063C101.411 63.517 84.2188 60.4316 78.4881 56.0239C72.7573 51.6162 60.4141 32.6629 57.3282 32.2222Z" stroke="#BFBFBB"/>
<path d="M212.941 262.746C208.974 264.069 210.278 266.685 207.21 267.154C204.404 267.583 201.723 267.759 200.157 265.391C197.838 261.886 209.557 258.317 213.382 256.576C217.562 254.672 218.672 253.474 228.811 256.127C238.95 258.779 259.522 255.011 250.411 262.746C245.635 266.802 237.627 269.358 233.66 268.476C229.693 267.595 216.908 261.424 212.941 262.746Z" stroke="#BFBFBB"/>
<path d="M233.66 276.41C231.262 274.013 235.545 274.531 238.509 272.884C242.477 270.68 251.293 275.529 246.885 275.529C242.477 275.529 242.917 278.173 239.832 278.614C236.746 279.055 235.423 278.173 233.66 276.41Z" stroke="#BFBFBB"/>
<path d="M108.024 36.1891C113.314 33.1037 109.899 30.7667 112.873 29.5775C117.281 27.8144 120.808 26.9329 123.453 29.5775C128.188 34.3119 134.36 36.5994 135.796 41.4784C136.444 43.6815 135.602 42.912 134.473 47.2084C133.007 52.7899 132.71 45.4453 125.216 48.5308C117.722 51.6162 102.734 39.2745 108.024 36.1891Z" stroke="#BFBFBB"/>
<path d="M136.237 18.5582C137.811 9.07154 138.887 10.5561 145.935 4.01265C152.107 -1.71734 154.056 2.64385 157.396 1.80886C162.686 0.486482 157.396 13.8767 157.396 20.762C157.396 25.5295 157.298 26.131 156.54 30.7465L156.515 30.8998C155.994 34.0731 159.601 42.3599 157.837 44.123C152.547 49.4131 149.462 48.09 140.204 48.5308C136.017 48.7301 137.745 39.6327 135.355 36.1891C134.45 34.8854 123.895 27.8132 125.216 26.9329C127.861 25.1698 135.796 29.8591 135.796 26.9329V26.7572C135.796 24.0555 135.795 21.2175 136.237 18.5582Z" stroke="#BFBFBB"/>
<path d="M131.828 60.8724C128.743 56.4647 127.861 52.0569 130.947 53.3793C134.033 54.7016 141.527 48.5308 143.731 50.2938C145.935 52.0569 145.053 55.1423 143.731 56.0239C142.408 56.9054 134.914 65.2801 131.828 60.8724Z" stroke="#BFBFBB"/>
<defs>
<linearGradient id="paint0_linear_10_30" x1="32" y1="52" x2="262" y2="299.5" gradientUnits="userSpaceOnUse">
<stop offset="0.197917" stop-color="#FB766E" stop-opacity="0.63"/>
<stop offset="0.578125" stop-color="#6E91EA" stop-opacity="0.403229"/>
<stop offset="1" stop-color="#D9D9D9" stop-opacity="0"/>
</linearGradient>
<linearGradient id="paint1_linear_10_30" x1="32" y1="52" x2="262" y2="299.5" gradientUnits="userSpaceOnUse">
<stop offset="0.197917" stop-color="#FB766E" stop-opacity="0.63"/>
<stop offset="0.578125" stop-color="#6E91EA" stop-opacity="0.403229"/>
<stop offset="1" stop-color="#D9D9D9" stop-opacity="0"/>
</linearGradient>
<linearGradient id="paint2_linear_10_30" x1="32" y1="52" x2="262" y2="299.5" gradientUnits="userSpaceOnUse">
<stop offset="0.197917" stop-color="#FB766E" stop-opacity="0.63"/>
<stop offset="0.578125" stop-color="#6E91EA" stop-opacity="0.403229"/>
<stop offset="1" stop-color="#D9D9D9" stop-opacity="0"/>
</linearGradient>
<linearGradient id="paint3_linear_10_30" x1="32" y1="52" x2="262" y2="299.5" gradientUnits="userSpaceOnUse">
<stop offset="0.197917" stop-color="#FB766E" stop-opacity="0.63"/>
<stop offset="0.578125" stop-color="#6E91EA" stop-opacity="0.403229"/>
<stop offset="1" stop-color="#D9D9D9" stop-opacity="0"/>
</linearGradient>
<linearGradient id="paint4_linear_10_30" x1="32" y1="52" x2="262" y2="299.5" gradientUnits="userSpaceOnUse">
<stop offset="0.197917" stop-color="#FB766E" stop-opacity="0.63"/>
<stop offset="0.578125" stop-color="#6E91EA" stop-opacity="0.403229"/>
<stop offset="1" stop-color="#D9D9D9" stop-opacity="0"/>
</linearGradient>
<linearGradient id="paint5_linear_10_30" x1="32" y1="52" x2="262" y2="299.5" gradientUnits="userSpaceOnUse">
<stop offset="0.197917" stop-color="#FB766E" stop-opacity="0.63"/>
<stop offset="0.578125" stop-color="#6E91EA" stop-opacity="0.403229"/>
<stop offset="1" stop-color="#D9D9D9" stop-opacity="0"/>
</linearGradient>
</defs>
</svg>
