<svg width="228" height="44" viewBox="0 0 228 44" fill="none" xmlns="http://www.w3.org/2000/svg">
<path d="M46.6007 30.0121C45.0338 30.0121 43.7306 29.4185 42.6912 28.2311C41.6672 27.0282 41.1553 25.5674 41.1553 23.8489V19.7479C41.1553 19.373 41.163 19.0996 41.1785 18.9277C41.2096 18.7559 41.2794 18.5528 41.388 18.3185C41.6052 17.8966 42.2102 17.6857 43.2031 17.6857C44.2891 17.6857 44.9252 17.9826 45.1113 18.5762C45.2044 18.8262 45.251 19.2246 45.251 19.7714V23.8724C45.251 24.5129 45.4294 25.0128 45.7862 25.3722C46.1585 25.7315 46.6472 25.9112 47.2523 25.9112C47.8728 25.9112 48.3693 25.7237 48.7416 25.3487C49.1294 24.9738 49.3234 24.4817 49.3234 23.8724V19.7245C49.3234 19.3652 49.3311 19.0996 49.3466 18.9277C49.3777 18.7403 49.4552 18.5294 49.5793 18.295C49.781 17.8888 50.3783 17.6857 51.3712 17.6857C52.3486 17.6857 52.9459 17.8966 53.1631 18.3185C53.2717 18.5528 53.3337 18.7637 53.3492 18.9512C53.3803 19.123 53.3958 19.3886 53.3958 19.7479V28.0437C53.3958 28.3874 55.7868 28.6765 53.707 29.1217C53.1252 29.7076 52.0858 30.0747 51.9617 30.2934C52.6848 30.6215 60.9355 32.9649 52.209 31.7932C50.7982 31.4651 49.9876 32.051 50.2164 29.7076C51.6592 28.5124 49.3699 28.8873 49.3699 28.5124C49.3078 28.6217 49.1682 28.7779 48.951 28.981C48.7338 29.1841 48.5244 29.356 48.3227 29.4966C47.7952 29.8403 47.2212 30.0121 46.6007 30.0121Z" fill="#3E238A"/>
<path d="M69.1507 22.6538C69.1507 23.6068 68.9103 24.3176 68.4293 24.7863C67.9639 25.2394 67.4442 25.4659 66.8702 25.4659H61.355C61.355 25.9033 61.611 26.2705 62.1229 26.5673C62.6349 26.8641 63.1468 27.0126 63.6588 27.0126C64.5586 27.0126 65.2645 26.9188 65.7765 26.7314L66.0324 26.6376C66.4048 26.4658 64.706 26.9612 68.8884 25.6065C69.3848 25.6065 68.8884 30.598 68.2432 27.4344C68.4449 27.8562 71.2155 28.2155 71.2155 28.5124C71.2155 29.9028 66.8935 30.598 63.589 30.598C62.441 30.598 61.417 30.4027 60.5172 30.0121C59.6329 29.606 58.9426 29.0748 58.4461 28.4186C57.4687 27.1532 56.9801 25.7393 56.9801 24.177C56.9801 22.2085 57.6084 20.6384 58.865 19.4667C60.1371 18.2794 61.7196 17.6857 63.6123 17.6857C65.7687 17.6857 67.3511 18.4512 68.3595 19.9823C68.887 20.7947 69.1507 21.6852 69.1507 22.6538ZM64.2406 23.3334C64.8301 23.3334 65.1249 23.0834 65.1249 22.5835C65.1249 22.2242 64.9852 21.9351 64.706 21.7164C64.4423 21.4977 64.0544 21.3883 63.5424 21.3883C63.046 21.3883 62.5496 21.5992 62.0531 22.0211C61.5567 22.4273 61.3084 22.8647 61.3084 23.3334H64.2406Z" fill="#3E238A"/>
<path d="M97.5699 17.8263C97.8647 17.9201 98.1051 18.0841 98.2913 18.3185C98.493 18.5372 98.5938 18.8965 98.5938 19.3964C98.5938 19.8964 98.4465 20.4432 98.1517 21.0368C97.8569 21.6305 97.4303 21.9273 96.8718 21.9273C96.5925 21.9273 96.321 21.8648 96.0573 21.7399C95.8091 21.6149 95.4755 21.5524 95.0567 21.5524C94.6378 21.5524 94.2422 21.7008 93.8698 21.9976C93.513 22.2945 93.3346 22.6538 93.3346 23.0756V27.9968C93.3346 28.3561 93.3191 28.6295 93.2881 28.817C93.2725 28.9888 92.7296 30.0356 92.1478 30.0035C92.7296 28.278 90.2628 31.7932 89.2855 31.7932C88.5408 31.7932 90.9842 29.8715 89.8207 29.8715C88.6572 30.4574 89.27 29.0826 89.2389 28.6295C89.2389 28.4733 89.2389 28.2468 89.2389 27.9499V19.7245C89.2389 19.3652 89.2467 19.0996 89.2622 18.9277C89.2932 18.7403 89.363 18.5372 89.4716 18.3185C89.6888 17.8966 90.2939 17.6857 91.2868 17.6857C92.2176 17.6857 92.7994 17.8654 93.0321 18.2247C93.2027 18.4747 93.2881 18.7325 93.2881 18.998C93.3656 18.8887 93.4742 18.7559 93.6139 18.5997C93.769 18.4434 94.087 18.2325 94.568 17.9669C95.0489 17.7013 95.4678 17.5686 95.8246 17.5686C96.1969 17.5686 96.5072 17.592 96.7554 17.6389C97.0037 17.6701 97.2751 17.7326 97.5699 17.8263Z" fill="#3E238A"/>
<path d="M105.285 12.1318H111.754H118.224C118.72 12.1318 119.085 12.1943 119.317 12.3193C119.55 12.4286 119.705 12.6083 119.783 12.8583C119.86 13.1082 119.899 13.4363 119.899 13.8425C119.899 14.2487 119.86 14.5768 119.783 14.8268C119.705 15.0611 119.573 15.2251 119.387 15.3189C119.108 15.4595 118.712 15.5298 118.2 15.5298H113.756V27.3172C113.756 27.6765 113.74 27.9421 113.709 28.114C113.694 28.2858 112.201 27.8796 112.077 28.114C111.968 28.3327 113.189 29.0982 112.895 29.1919C112.6 29.2857 109.443 32.0509 108.962 32.0509C108.481 32.0509 110.862 29.2857 110.568 29.1919C110.288 29.0982 109.302 30.1371 109.178 29.9184C109.069 29.6841 109.784 28.2858 109.753 28.114C109.738 27.9265 109.73 27.6531 109.73 27.2938V15.5298H105.262C104.765 15.5298 104.401 15.4751 104.168 15.3657C103.935 15.2408 103.78 15.0533 103.703 14.8033C103.625 14.5534 103.586 14.2253 103.586 13.8191C103.586 13.4129 103.625 13.0926 103.703 12.8583C103.78 12.6083 103.912 12.4365 104.098 12.3427C104.378 12.2021 104.773 12.1318 105.285 12.1318Z" fill="#06787F"/>
<path d="M128.9 18.131C130.451 18.131 131.739 18.7247 132.762 19.912C133.802 21.0994 134.322 22.5523 134.322 24.2708V28.3952C134.322 28.7546 134.353 29.028 134.322 29.2154C134.306 29.3873 133.864 29.8667 133.74 30.1011C133.158 30.1011 134.066 33.4426 132.576 30.434C126.177 33.6162 131.182 30.434 130.554 29.8247C130.43 29.5904 130.304 29.3795 130.272 29.192C130.257 29.0045 130.249 28.7233 130.249 28.3484V24.2474C130.249 23.6068 130.071 23.1069 129.714 22.7476C129.357 22.3882 128.9 22.2086 128.341 22.2086C127.798 22.2086 127.317 22.3804 126.898 22.7241C126.479 23.0522 126.239 23.4272 126.177 23.849V28.3952C126.177 28.7546 126.161 29.028 126.13 29.2154C126.115 29.3873 125.475 29.9185 125.595 29.895C124.893 29.9185 125.145 33.3633 124.055 30.434C117.656 33.9491 122.554 30.2231 122.337 29.8013C122.229 29.5669 122.159 29.3638 122.128 29.192C122.112 29.0201 122.104 28.7467 122.104 28.3718V14.3581C122.104 13.9988 122.112 13.7332 122.128 13.5613C122.159 13.3739 122.229 13.1708 122.337 12.9521C122.554 12.5302 123.159 12.3193 124.152 12.3193C125.13 12.3193 125.719 12.5302 125.921 12.9521C126.045 13.1864 126.115 13.3973 126.13 13.5848C126.161 13.7566 126.177 14.0222 126.177 14.3815V19.5605C126.953 18.6075 127.86 18.131 128.9 18.131Z" fill="#3E238A"/>
<path d="M179.746 12.8816C180.786 13.2566 181.306 13.7565 181.306 14.3814C181.306 14.5845 181.213 14.9673 181.026 15.5297L176.558 28.5357C176.527 28.6451 176.473 28.7779 176.395 28.9341C176.318 29.0903 177.183 29.9105 176.842 30.1761C176.516 30.4261 175.562 30.1761 175.097 30.1761C174.647 30.1761 172.245 31.9728 171.904 31.7229C171.578 31.4573 172.85 29.0435 172.742 28.7935L170.019 20.7087C168.297 25.833 167.421 28.442 167.39 28.5357C167.359 28.6295 167.289 28.7623 167.18 28.9341C167.072 29.106 168.255 29.8247 168.115 29.9653C167.759 30.3246 166.867 30.5511 166.37 30.5511C161.157 34.6756 164.62 29.8246 164.295 29.5903C163.984 29.3559 163.775 29.1216 163.666 28.8872L163.503 28.5357L159.012 15.5297C158.841 15.0142 158.756 14.6314 158.756 14.3814C158.756 13.7565 159.276 13.2644 160.315 12.9051C160.765 12.7488 161.168 12.6707 161.525 12.6707C161.898 12.6707 162.177 12.7957 162.363 13.0457C162.565 13.2956 162.743 13.6784 162.898 14.194L165.458 22.021L167.995 14.3111C168.212 13.655 168.607 13.2019 169.181 12.9519C169.43 12.8426 169.748 12.7879 170.136 12.7879C170.539 12.7879 170.911 12.9207 171.253 13.1863C171.594 13.4362 171.811 13.6862 171.904 13.9362L174.58 22.0679L177.14 14.194C177.264 13.8346 177.365 13.569 177.443 13.3972C177.52 13.2253 177.66 13.0613 177.862 12.9051C178.079 12.7332 178.342 12.6473 178.653 12.6473C178.963 12.6473 179.328 12.7254 179.746 12.8816Z" fill="#06787F"/>
<path d="M180.601 23.802C180.601 21.9273 181.252 20.3806 182.556 19.162C183.859 17.9434 185.348 17.3341 187.024 17.3341C188.699 17.3341 190.181 17.9434 191.468 19.162C192.756 20.365 193.4 21.9038 193.4 23.7786C193.4 25.0753 193.066 26.2313 192.399 27.2468C191.732 28.2467 190.918 28.9888 189.956 29.4731C189.009 29.9418 188.024 30.1761 187 30.1761C185.976 30.1761 184.984 29.9262 184.022 29.4262C183.06 28.9107 182.245 28.1608 181.578 27.1765C180.927 26.1767 180.601 25.0518 180.601 23.802ZM185.464 25.4893C185.961 25.8642 186.488 25.0206 187 25.0206C187.512 25.0206 188.001 25.8564 188.513 25.4658C189.025 25.0753 187.896 24.5675 187.896 23.802C187.896 23.0365 189.04 22.3959 188.56 22.021C188.079 21.646 187.559 22.6478 187 22.6478C186.442 22.6478 185.922 21.6539 185.441 22.0444C184.96 22.435 185.889 23.0365 185.889 23.802C185.889 24.5519 184.968 25.0987 185.464 25.4893Z" fill="#3E238A"/>
<path d="M205.539 13.8659C205.539 13.5066 205.547 13.241 205.562 13.0691C205.593 12.8816 205.663 12.6707 205.772 12.4364C205.989 12.0146 206.594 11.8037 207.587 11.8037C208.533 11.8037 209.123 12.0146 209.355 12.4364C209.479 12.6707 209.549 12.8816 209.565 13.0691C209.596 13.2566 209.611 13.53 209.611 13.8893V24.7394C209.611 25.3018 209.658 25.6611 209.751 25.8173C209.844 25.958 210.046 26.0283 210.356 26.0283C210.682 26.0283 210.899 26.0439 211.008 26.0751C211.116 26.0907 212.175 25.1691 212.33 25.2785C212.641 25.4816 211.167 27.3017 211.167 28.2078C207.676 24.1068 213.804 29.7466 213.494 29.9654C213.09 30.2466 210.038 30.059 208.518 29.8715C207.323 29.7153 206.547 29.3169 206.191 28.6763C205.756 27.9108 205.539 26.6922 205.539 25.0206V13.8659Z" fill="#3E238A"/>
<path d="M221.359 12.0401C221.483 11.8058 221.693 11.6418 221.988 11.548C222.282 11.4543 222.67 11.4074 223.151 11.4074C223.648 11.4074 224.043 11.4543 224.338 11.548C224.633 11.6418 224.834 11.8058 224.943 12.0401C225.067 12.2745 225.137 12.4854 225.152 12.6729C225.184 12.8447 225.199 13.1103 225.199 13.4696V27.4599C225.199 27.8192 225.851 27.8 225.199 28.5897C224.547 29.3795 221.98 28.3504 225.129 30.5512C223.966 31.7229 222.22 28.2078 222.22 29.9654C221.15 29.9654 221.297 29.1159 221.173 28.3504C220.522 29.1003 219.614 29.4752 218.45 29.4752C217.054 29.4752 215.782 28.8659 214.634 27.6474C213.486 26.4132 212.912 24.9837 212.912 23.3589C212.912 21.7185 213.486 20.2812 214.634 19.047C215.798 17.8128 217.07 17.1957 218.45 17.1957C219.598 17.1957 220.491 17.5862 221.127 18.3674V13.4462C221.127 13.0869 221.134 12.8213 221.15 12.6494C221.181 12.462 221.251 12.2589 221.359 12.0401ZM217.589 24.7649C217.993 25.1868 218.482 24.5775 219.056 24.5775C219.63 24.5775 220.103 25.1868 220.475 24.7649C220.863 24.3431 219.933 23.8588 219.933 23.3589C219.933 22.8433 220.871 22.3903 220.498 21.9528C220.141 21.5154 219.676 22.2047 219.056 22.2047C218.435 22.2047 217.915 21.5154 217.543 21.9528C217.171 22.3746 218.073 22.8433 218.073 23.3589C218.073 23.8744 217.186 24.3431 217.589 24.7649Z" fill="#3E238A"/>
<path d="M84.8522 22.1148C84.8522 23.0678 84.6117 23.7786 84.1308 24.2473C83.6654 24.7004 83.1457 24.9269 82.5717 24.9269H77.0565C77.0565 25.3644 77.3124 25.7315 77.8244 26.0283C78.3364 26.3252 78.8483 26.4736 79.3603 26.4736C80.2601 26.4736 80.966 26.3798 81.4779 26.1924L81.7339 26.0986C82.1062 25.9268 80.4075 26.4222 84.5898 25.0675C85.0863 25.0675 84.5898 30.059 83.9446 26.8954C84.1463 27.3172 86.9169 27.6765 86.9169 27.9734C86.9169 29.3638 82.5949 30.059 79.2905 30.059C78.1424 30.059 77.1185 29.8637 76.2187 29.4732C75.3344 29.067 74.644 28.5358 74.1476 27.8796C73.1702 26.6142 72.6815 25.2003 72.6815 23.638C72.6815 21.6696 73.3098 20.0995 74.5665 18.9277C75.8386 17.7404 77.421 17.1467 79.3137 17.1467C81.4702 17.1467 83.0526 17.9123 84.061 19.4433C84.5885 20.2557 84.8522 21.1462 84.8522 22.1148ZM79.9421 22.7944C80.5316 22.7944 80.8263 22.5444 80.8263 22.0445C80.8263 21.6852 80.6867 21.3962 80.4075 21.1774C80.1437 20.9587 79.7559 20.8493 79.2439 20.8493C78.7475 20.8493 78.251 21.0603 77.7546 21.4821C77.2581 21.8883 77.0099 22.3257 77.0099 22.7944H79.9421Z" fill="#3E238A"/>
<path d="M149.708 23.1928C149.708 24.1458 149.468 24.8566 148.987 25.3253C148.521 25.7784 148.002 26.0049 147.428 26.0049H141.912C141.912 26.4423 142.168 26.8095 142.68 27.1063C143.192 27.4031 143.704 27.5516 144.216 27.5516C145.116 27.5516 145.822 27.4578 146.334 27.2703L146.59 27.1766C146.962 27.0048 145.263 27.5002 149.446 26.1455C149.942 26.1455 149.446 31.137 148.801 27.9734C149.002 28.3952 151.773 28.7545 151.773 29.0513C151.773 30.4418 147.451 31.137 144.146 31.137C142.998 31.137 141.975 30.9417 141.075 30.5511C140.19 30.1449 139.5 29.6138 139.004 28.9576C138.026 27.6922 137.538 26.2783 137.538 24.716C137.538 22.7475 138.166 21.1774 139.422 20.0057C140.695 18.8184 142.277 18.2247 144.17 18.2247C146.326 18.2247 147.909 18.9902 148.917 20.5213C149.444 21.3337 149.708 22.2242 149.708 23.1928ZM144.798 23.8724C145.388 23.8724 145.682 23.6224 145.682 23.1225C145.682 22.7631 145.543 22.4741 145.263 22.2554C145 22.0367 144.612 21.9273 144.1 21.9273C143.603 21.9273 143.107 22.1382 142.611 22.5601C142.114 22.9662 141.866 23.4037 141.866 23.8724H144.798Z" fill="#3E238A"/>
<path d="M203.208 17.8263C203.503 17.92 203.743 18.084 203.929 18.3184C204.131 18.5371 204.232 18.8964 204.232 19.3964C204.232 19.8963 204.085 20.4431 203.79 21.0368C203.495 21.6304 203.068 21.9273 202.51 21.9273C202.231 21.9273 201.959 21.8648 201.695 21.7398C201.447 21.6148 201.114 21.5523 200.695 21.5523C200.276 21.5523 199.88 21.7007 199.508 21.9976C199.151 22.2944 198.973 22.6537 198.973 23.0755V27.9967C198.973 28.3561 198.957 28.6295 198.926 28.8169C198.911 28.9888 198.368 30.0355 197.786 30.0035C198.368 28.2779 195.901 31.7931 194.924 31.7931C194.179 31.7931 196.622 29.8715 195.459 29.8715C194.295 30.4573 194.908 29.0825 194.877 28.6295C194.877 28.4732 194.877 28.2467 194.877 27.9499V19.7244C194.877 19.3651 194.885 19.0995 194.9 18.9277C194.931 18.7402 195.001 18.5371 195.11 18.3184C195.327 17.8966 195.932 17.6857 196.925 17.6857C197.856 17.6857 198.437 17.8653 198.67 18.2246C198.841 18.4746 198.926 18.7324 198.926 18.998C199.004 18.8886 199.112 18.7558 199.252 18.5996C199.407 18.4434 199.725 18.2325 200.206 17.9669C200.687 17.7013 201.106 17.5685 201.463 17.5685C201.835 17.5685 202.145 17.5919 202.394 17.6388C202.642 17.67 202.913 17.7325 203.208 17.8263Z" fill="#3E238A"/>
<path d="M35.2381 26.3161C36.7721 27.3177 37.8725 28.0447 38.5395 28.497C39.74 29.3694 38.1088 31.5018 38.8494 32.7134C39.163 33.2265 43.8885 25.3468 42.3509 33.9252C41.6174 38.0174 39.6337 45.8119 42.3509 43.618C57.3574 31.5018 36.3983 37.2206 35.0977 36.3482C34.931 36.2513 32.5967 37.5598 32.5967 33.925C31.8296 33.4081 30.1191 33.3111 29.6856 33.0527C26.5843 35.3789 23.0994 36.5421 19.231 36.5421C14.0621 36.5421 9.69354 34.7651 6.12532 31.211C2.59044 27.657 0.822998 23.4244 0.822998 18.5134C0.822998 15.8317 1.32322 13.3277 2.32365 11.0014C3.32409 8.6428 4.65801 6.67192 6.3254 5.08876C7.9928 3.50559 9.9103 2.26167 12.0779 1.357C14.2455 0.452333 16.4798 0 18.7809 0C23.7163 0 28.0016 1.72856 31.6365 5.18568C35.2714 8.64281 37.0889 13.0207 37.0889 18.3195C37.0889 21.0012 36.4719 23.6667 35.2381 26.3161ZM13.9927 18.3195C13.9927 21.1951 8.38787 25.487 10.2887 27.2963C12.2229 29.0733 16.4132 24.037 18.7809 24.037C21.1486 24.037 26.0846 29.041 27.9855 27.2963C29.8863 25.5516 25.1046 21.2597 25.1046 18.3195C25.1046 15.3793 29.9196 11.5548 27.9855 9.77778C26.0846 8.00075 21.1486 12.7461 18.7809 12.7461C16.4131 12.7461 12.1895 7.96844 10.2887 9.77778C8.38787 11.5548 13.9927 15.444 13.9927 18.3195Z" fill="#06787F"/>
</svg>
